<svg width="43" height="32" viewBox="0 0 43 32" fill="none" xmlns="http://www.w3.org/2000/svg">
<path d="M1.72808 1.97296C1.89905 1.73686 2.14954 1.57184 2.43195 1.50718C2.4379 1.50745 2.44385 1.50776 2.4498 1.50812L2.56242 1.51489L2.6748 1.50473C2.7446 1.49842 2.81483 1.49842 2.88464 1.50473L2.952 1.51082H3.01964H13.6664C13.8771 1.51658 14.0824 1.57938 14.2604 1.69264C14.4414 1.80782 14.5871 1.97072 14.6815 2.1634L14.6914 2.18375L14.702 2.20378L16.728 6.04249L17.1501 6.84235H18.0546H40.9487L36.8341 19.5417L36.8314 19.5499C36.8283 19.5555 36.8206 19.5684 36.8057 19.5877C36.7744 19.6283 36.7257 19.6778 36.6624 19.7246C36.599 19.7715 36.5373 19.8038 36.4884 19.8222C36.4612 19.8324 36.4446 19.8359 36.439 19.8369H17.8141C17.8066 19.8349 17.7941 19.8312 17.7766 19.8245C17.7236 19.8043 17.6542 19.7683 17.5825 19.7163C17.5108 19.6642 17.4566 19.6106 17.4229 19.5684C17.4119 19.5547 17.405 19.5446 17.4012 19.5386L17.4005 19.5366L15.2146 12.8722L13.0287 6.20774L13.022 6.18734L13.0147 6.16715L12.5349 4.83427L12.1778 3.84235H11.1236H3.12627H3.00702L2.88928 3.86119C2.5751 3.91146 2.25383 3.83486 1.99612 3.64825C1.73842 3.46164 1.56541 3.1803 1.51514 2.86612C1.46487 2.55194 1.54147 2.23067 1.72808 1.97296ZM17.9551 29.3342C17.9551 28.6698 18.4565 28.1685 19.1209 28.1685C19.7853 28.1685 20.2866 28.6698 20.2866 29.3342C20.2866 29.9986 19.7853 30.5 19.1209 30.5C18.4565 30.5 17.9551 29.9986 17.9551 29.3342ZM33.9497 29.3342C33.9497 28.6698 34.451 28.1685 35.1154 28.1685C35.7798 28.1685 36.2812 28.6698 36.2812 29.3342C36.2812 29.9986 35.7799 30.5 35.1154 30.5C34.451 30.5 33.9497 29.9986 33.9497 29.3342Z" fill="white" stroke="black" stroke-width="3"/>
</svg>
