<svg width="32" height="32" viewBox="0 0 32 32" fill="none" xmlns="http://www.w3.org/2000/svg">
<path d="M11.2489 0.0014801C10.7067 0.0093689 9.67545 0.0448704 9.27716 0.0685387C6.83414 0.222378 4.83083 0.906763 3.34214 2.10197C1.43742 3.6305 0.437732 5.65408 0.139995 8.59083C0.0276047 9.68742 0 11.1154 0 15.9948C0 21.8999 0.0354918 22.9689 0.26816 24.3179C0.528433 25.8228 1.05292 27.1639 1.80811 28.2467C2.24781 28.8798 2.83737 29.505 3.45059 29.9942C4.70266 30.9922 6.35303 31.6075 8.39972 31.8402C9.57095 31.9744 10.7599 32 15.991 32C20.7213 32 22.001 31.9803 23.0894 31.8896C25.7414 31.6706 27.8492 30.7732 29.4286 29.1895C30.939 27.6787 31.7474 25.5782 31.9229 22.7204C31.9761 21.8506 31.986 21.2332 31.9958 17.9592C32.0057 14.6201 32.0018 13.9338 31.9426 10.3245C31.9189 8.93203 31.8775 8.42121 31.7139 7.54354C31.359 5.64816 30.6136 4.10583 29.4247 2.80017C27.9163 1.14541 25.7296 0.253935 22.7147 0.0685387C21.7703 0.0113411 21.2675 0.0054245 16.5431 0.0014801C13.8595 -0.000492096 11.4776 -0.000492096 11.2489 0.0014801ZM20.5064 2.85736C20.7942 2.87314 21.2063 2.89089 21.4232 2.89878C22.07 2.9185 23.606 3.07037 24.2231 3.1749C25.069 3.31888 25.8597 3.62853 26.536 4.08019C27.094 4.45492 27.4194 4.7843 27.8472 5.41543C28.3757 6.19449 28.6478 6.83746 28.7996 7.67174C28.8272 7.8236 28.8765 8.08 28.9081 8.2437C29.0204 8.81961 29.0559 9.16674 29.0855 9.93002C29.0973 10.2278 29.1151 10.5572 29.1249 10.6598C29.1388 10.7781 29.1486 12.5019 29.1565 15.3736C29.1644 19.3241 29.1624 19.9808 29.1348 20.5311C29.1171 20.8782 29.0934 21.3713 29.0835 21.6257C29.054 22.3436 28.8903 23.8702 28.7878 24.3869C28.5827 25.4224 28.1351 26.3474 27.4785 27.0929C27.2518 27.3513 26.7904 27.7181 26.3132 28.0179C26.0667 28.1737 25.5383 28.442 25.3175 28.5268C25.0631 28.6234 24.651 28.7339 24.3217 28.795C24.16 28.8246 23.8978 28.8739 23.7401 28.9035C23.186 29.012 22.7818 29.0554 22.0443 29.081C21.7683 29.0909 21.4094 29.1106 21.2458 29.1244C20.814 29.1619 11.2923 29.1619 10.7757 29.1244C9.65179 29.0435 8.25973 28.8976 7.72932 28.8029C6.65865 28.6155 5.63728 28.1304 4.89589 27.4617C4.71252 27.2961 4.64351 27.2211 4.42661 26.9411C4.03423 26.4381 3.63396 25.7518 3.48017 25.3139C3.42101 25.1502 3.37763 24.9767 3.25538 24.4264C3.20018 24.1818 3.13511 23.884 3.1075 23.7657C3.003 23.3041 2.94779 22.8052 2.91624 21.9985C2.90441 21.7007 2.88666 21.3654 2.87681 21.251C2.86498 21.1267 2.85314 19.2688 2.84723 16.5964C2.83934 12.7721 2.84131 12.068 2.86695 11.5769C2.88469 11.2613 2.90244 10.8274 2.90835 10.6105C2.92807 9.9951 3.07398 8.46854 3.17651 7.82952C3.39735 6.4568 4.0717 5.19848 4.96885 4.48451C5.41644 4.12949 5.83445 3.86324 6.31951 3.6305C6.81836 3.38988 7.2561 3.25774 7.93636 3.14729C8.06649 3.1256 8.25973 3.0901 8.3662 3.0684C8.78619 2.97965 9.5118 2.90864 9.97713 2.90864C10.1092 2.90864 10.3202 2.89878 10.4464 2.88892C10.967 2.84159 11.5131 2.83567 15.6558 2.8337C19.1774 2.82975 20.0805 2.83567 20.5064 2.85736Z" fill="black"/>
<path d="M24.1639 5.4864C23.6513 5.59488 23.1426 5.98145 22.8291 6.50016C22.7443 6.6402 22.6891 6.77629 22.6319 6.99127C22.5747 7.20033 22.5767 7.59084 22.6339 7.80582C22.7186 8.12731 22.8882 8.42315 23.1426 8.68941C23.6 9.17065 24.1482 9.38958 24.722 9.32252C25.1695 9.27124 25.5481 9.07204 25.903 8.70125C26.3309 8.25551 26.5163 7.75652 26.4591 7.20625C26.3782 6.41733 25.6704 5.64616 24.8797 5.48443C24.6904 5.44499 24.3493 5.44696 24.1639 5.4864Z" fill="black"/>
<path d="M15.3896 7.78018C13.6781 7.8788 12.1224 8.46851 10.8211 9.50989C10.3321 9.90237 9.93377 10.3027 9.51378 10.8274C8.5141 12.0778 7.97186 13.344 7.76482 14.9159C7.72736 15.2039 7.72145 15.336 7.72145 15.9849C7.71947 16.8567 7.74905 17.1663 7.8989 17.8685C8.40368 20.2214 10.0383 22.2726 12.3137 23.4067C13.5145 24.0043 14.9125 24.2843 16.3479 24.2094C18.5208 24.099 20.3289 23.2943 21.788 21.7914C23.4128 20.1149 24.2054 18.0973 24.1482 15.7877C24.1147 14.4584 23.8426 13.3361 23.2944 12.2573C22.9218 11.5216 22.5018 10.9418 21.8413 10.2416C20.7745 9.11345 19.552 8.37976 18.1501 8.02869C17.2983 7.81568 16.3223 7.72693 15.3896 7.78018ZM16.275 10.6203C17.318 10.6873 18.1817 10.9792 18.9783 11.5374C19.9267 12.2001 20.6602 13.1645 21.0151 14.2099C21.2261 14.8272 21.301 15.2927 21.303 15.9751C21.303 16.6318 21.2379 17.0776 21.0585 17.6259C20.5202 19.2688 19.0828 20.6494 17.4403 21.103C16.3933 21.393 15.2023 21.3673 14.1967 21.034C13.4001 20.7717 12.779 20.3792 12.0889 19.7047C11.5999 19.2254 11.312 18.8369 11.0616 18.3221C10.7244 17.6279 10.5766 17.0007 10.5549 16.1605C10.5371 15.5116 10.5983 14.9929 10.756 14.4446C11.0734 13.3401 11.7813 12.348 12.7771 11.6124C13.5736 11.0246 14.5122 10.6873 15.5434 10.6223C15.9003 10.5986 15.9338 10.5986 16.275 10.6203Z" fill="black"/>
</svg>
