<svg width="32" height="32" viewBox="0 0 32 32" fill="none" xmlns="http://www.w3.org/2000/svg">
<path d="M31.1778 0.633127C30.852 0.322598 30.4555 0.116375 30.0313 0.0367908C29.607 -0.0427933 29.171 0.00729478 28.7707 0.181631L1.49974 12.0099C1.0244 12.2161 0.622303 12.5866 0.353624 13.0661C0.0849457 13.5456 -0.0358728 14.1083 0.00924736 14.6699C0.0543675 15.2316 0.263 15.762 0.603927 16.1818C0.944854 16.6016 1.39974 16.8882 1.90053 16.9988L8.82756 18.5284V28.0807C8.82716 28.5972 8.96558 29.1021 9.2253 29.5316C9.48501 29.9612 9.85434 30.2959 10.2865 30.4936C10.7187 30.6912 11.1942 30.7428 11.653 30.6418C12.1117 30.5409 12.533 30.2919 12.8635 29.9264L16.697 25.6941L22.5154 31.347C22.9438 31.7669 23.4966 31.9992 24.0694 32C24.3185 31.9997 24.5659 31.9564 24.8028 31.8716C25.1936 31.7348 25.545 31.4872 25.822 31.1536C26.099 30.8201 26.292 30.4121 26.3816 29.9705L31.9396 3.19426C32.0364 2.73125 32.0166 2.24783 31.8823 1.79637C31.748 1.34492 31.5043 0.942642 31.1778 0.633127ZM24.0772 29.3874L11.9025 17.559L29.434 3.5802L24.0772 29.3874Z" fill="black"/>
</svg>
