<svg width="10" height="12" viewBox="0 0 10 12" fill="none" xmlns="http://www.w3.org/2000/svg">
<path d="M4.28571 0C3.5 0 2.85714 0.642857 2.85714 1.42857H1.42857C0.642857 1.42857 0 2.07143 0 2.85714H10C10 2.07143 9.35714 1.42857 8.57143 1.42857H7.14286C7.14286 0.642857 6.5 0 5.71429 0H4.28571ZM1.42857 4.28571V11.1571C1.42857 11.3143 1.54286 11.4286 1.7 11.4286H8.31429C8.47143 11.4286 8.58571 11.3143 8.58571 11.1571V4.28571H7.15714V9.28571C7.15714 9.68571 6.84286 10 6.44286 10C6.04286 10 5.72857 9.68571 5.72857 9.28571V4.28571H4.3V9.28571C4.3 9.68571 3.98571 10 3.58571 10C3.18571 10 2.87143 9.68571 2.87143 9.28571V4.28571H1.44286H1.42857Z" fill="#BFBFBF"/>
</svg>
