<svg width="32" height="19" viewBox="0 0 32 19" fill="none" xmlns="http://www.w3.org/2000/svg">
<path d="M13.4089 0.0104218C12.8021 0.0542145 12.0263 0.173079 11.7198 0.266918C11.188 0.429575 10.5311 1.01764 10.65 1.21783C10.675 1.24911 10.7939 1.29916 10.9253 1.32419C11.5008 1.43054 11.9825 1.75585 12.2015 2.18126C12.5706 2.90696 12.7395 5.18415 12.5393 6.79194C12.4079 7.85547 12.3516 8.09945 12.1514 8.48732C11.6322 9.52582 10.4248 8.68752 9.09851 6.36028C8.62305 5.53448 7.29677 2.88193 7.00274 2.175C6.63989 1.31793 6.52728 1.16153 6.12064 0.95508L5.77656 0.779913L3.18032 0.798679C0.834309 0.817448 0.565301 0.82996 0.383876 0.930056C0.0898433 1.08646 -0.035277 1.30542 0.00851513 1.58694C0.0460512 1.88723 1.02825 4.07683 1.75394 5.47818C3.1678 8.2058 4.36896 10.189 5.64519 11.9219C7.52825 14.4681 8.3603 15.2939 10.2809 16.52C11.1755 17.0956 11.8261 17.4147 12.6269 17.6837C13.728 18.0528 14.2034 18.1216 15.8488 18.1591C17.4816 18.1967 17.9508 18.1466 18.3011 17.9089C18.5826 17.7149 18.6702 17.4459 18.7265 16.6139C18.7766 15.7881 18.9392 15.0812 19.1582 14.7058C19.3584 14.3742 19.7775 13.9864 19.9652 13.9801C20.5971 13.9488 20.9537 14.2116 22.2799 15.7005C23.5249 17.0956 23.9816 17.5022 24.6697 17.8338C24.9825 17.9777 25.3579 18.1278 25.5143 18.1654C25.8897 18.253 30.957 18.1529 31.2823 18.059C31.6077 17.9589 31.958 17.6149 31.9643 17.3896C31.9893 16.7703 31.8954 16.4888 31.4638 15.8319C30.8882 14.9686 30.4002 14.418 28.7299 12.7664C26.9532 11.0085 26.8343 10.8458 26.8281 10.2578C26.8281 9.76355 27.0595 9.38819 28.6173 7.32371C30.8131 4.41466 31.689 3.00705 31.933 2.0186C32.0769 1.43679 31.9955 1.15527 31.6264 0.95508L31.3637 0.817448L28.2044 0.836216C25.971 0.854984 25.0013 0.880009 24.8887 0.930056C24.676 1.03015 24.457 1.39926 24.1755 2.09993C23.4248 3.97048 21.8796 6.66682 20.8598 7.88049C20.4532 8.3622 19.8213 8.85643 19.6149 8.85643C19.3208 8.85643 19.0769 8.66875 18.8954 8.29339L18.7265 7.94931L18.7453 4.70243C18.7641 1.20532 18.7515 1.10522 18.4325 0.642281C18.1134 0.191847 17.3377 0.0354462 15.2544 0.00416565C14.4099 -0.00209045 13.5841 -0.00209045 13.4089 0.0104218Z" fill="black"/>
</svg>
